# xmcd
#
# Track frame offsets:
#       150
#       18131
#       38541
#       61410
#       82954
#       107339
#       130752
#       149770
#       184184
#       201593
#       222824
#       242512
#       258321
#       289902
#
# Disc length: 4424 seconds
#
# Revision: 0
# Processed by: cddbd v1.4PL0 Copyright (c) Steve Scherf et al.
# Submitted via: CD-DA_X-Tractor v0.21
#
DISCID=c511460e
DTITLE=Smith/Neufeld/Johnson - Art
DYEAR=1900
DGENRE=
TTITLE0=I Am Yours
TTITLE1=Art
TTITLE2=One Heart, One Mind
TTITLE3=Give My Heart Away
TTITLE4=Now and Forever More
TTITLE5=At Your Feet
TTITLE6=Beauty For Ashes
TTITLE7=Bittersweet
TTITLE8=All Creation's King
TTITLE9=To Resist You
TTITLE10=Reckless Abandon
TTITLE11=Close 2 U
TTITLE12=Unison
TTITLE13=Data Track
EXTD=
EXTT0=
EXTT1=
EXTT2=
EXTT3=
EXTT4=
EXTT5=
EXTT6=
EXTT7=
EXTT8=
EXTT9=
EXTT10=
EXTT11=
EXTT12=
EXTT13=
PLAYORDER=
